<?xml version="1.0" encoding="iso-8859-1"?>
<!-- Generator: Adobe Illustrator 19.0.0, SVG Export Plug-In . SVG Version: 6.00 Build 0)  -->
<svg version="1.1" id="Capa_1" xmlns="http://www.w3.org/2000/svg" xmlns:xlink="http://www.w3.org/1999/xlink" x="0px" y="0px"
	 viewBox="0 0 448 448" style="enable-background:new 0 0 448 448;" xml:space="preserve">
<g>
	<g>
		<path d="M32,112c-17.6,0-32,14.4-32,32v256c0,17.6,14.4,32,32,32h32V112H32z"/>
	</g>
</g>
<g>
	<g>
		<rect x="96" y="112" width="256" height="320"/>
	</g>
</g>
<g>
	<g>
		<path d="M416,112h-32v320h32c17.6,0,32-14.4,32-32V144C448,126.4,433.6,112,416,112z"/>
	</g>
</g>
<g>
	<g>
		<path d="M288,16H160c-9.6,0-16,8-16,16v48h32V48h96v32h32V32C304,22.4,296,16,288,16z"/>
	</g>
</g>
<g>
</g>
<g>
</g>
<g>
</g>
<g>
</g>
<g>
</g>
<g>
</g>
<g>
</g>
<g>
</g>
<g>
</g>
<g>
</g>
<g>
</g>
<g>
</g>
<g>
</g>
<g>
</g>
<g>
</g>
</svg>
