<?xml version="1.0" encoding="iso-8859-1"?>
<!-- Generator: Adobe Illustrator 19.0.0, SVG Export Plug-In . SVG Version: 6.00 Build 0)  -->
<svg version="1.1" id="Capa_1" xmlns="http://www.w3.org/2000/svg" xmlns:xlink="http://www.w3.org/1999/xlink" x="0px" y="0px"
	 viewBox="0 0 512 512" style="enable-background:new 0 0 512 512;" xml:space="preserve">
<g>
	<g>
		<path d="M256.001,0c-30.452,0-72.543,91.273-75.199,241H331.2C328.543,91.273,286.453,0,256.001,0z"/>
	</g>
</g>
<g>
	<g>
		<path d="M437.019,74.98c-35.575-35.575-79.782-59.373-127.895-69.475c9.273,14.037,17.651,32.137,24.981,54.124
			c16.366,49.1,25.874,113.025,27.091,181.371h150.356C507.95,178.261,481.818,119.779,437.019,74.98z"/>
	</g>
</g>
<g>
	<g>
		<path d="M180.801,271c2.656,149.727,44.747,241,75.199,241c30.452,0,72.543-91.273,75.199-241H180.801z"/>
	</g>
</g>
<g>
	<g>
		<path d="M361.196,270.999c-1.217,68.347-10.725,132.273-27.09,181.37c-7.33,21.987-15.708,40.088-24.982,54.125
			c48.112-10.102,92.32-33.899,127.896-69.476c44.798-44.798,70.932-103.28,74.533-166.019H361.196z"/>
	</g>
</g>
<g>
	<g>
		<path d="M177.895,452.37C161.529,403.272,152.02,339.346,150.804,271H0.448c3.602,62.738,29.734,121.221,74.533,166.019
			c35.576,35.576,79.783,59.374,127.896,69.476C193.603,492.458,185.224,474.357,177.895,452.37z"/>
	</g>
</g>
<g>
	<g>
		<path d="M74.981,74.98C30.182,119.779,4.049,178.261,0.448,241h150.356c1.216-68.347,10.725-132.272,27.091-181.37
			c7.329-21.987,15.707-40.087,24.982-54.124C154.764,15.607,110.557,39.405,74.981,74.98z"/>
	</g>
</g>
<g>
</g>
<g>
</g>
<g>
</g>
<g>
</g>
<g>
</g>
<g>
</g>
<g>
</g>
<g>
</g>
<g>
</g>
<g>
</g>
<g>
</g>
<g>
</g>
<g>
</g>
<g>
</g>
<g>
</g>
</svg>
